Coordinates
version=1
nRows=15
nColumns=38
inDegrees=yes

Units are S.I. units (second, meters, Newtons, ...)
If the header above contains a line with 'inDegrees', this indicates whether rotational values are in degrees (yes) or radians (no).

endheader
time	pelvis_tilt	pelvis_list	pelvis_rotation	pelvis_tx	pelvis_ty	pelvis_tz	hip_flexion_r	hip_adduction_r	hip_rotation_r	knee_angle_r	knee_angle_r_beta	ankle_angle_r	subtalar_angle_r	mtp_angle_r	hip_flexion_l	hip_adduction_l	hip_rotation_l	knee_angle_l	knee_angle_l_beta	ankle_angle_l	subtalar_angle_l	mtp_angle_l	lumbar_extension	lumbar_bending	lumbar_rotation	arm_flex_r	arm_add_r	arm_rot_r	elbow_flex_r	pro_sup_r	radius_hand_r_lock	arm_flex_l	arm_add_l	arm_rot_l	elbow_flex_l	pro_sup_l	radius_hand_l_lock
      0.00000000	    -89.68771608	      9.52162963	   -180.66302527	      0.92617625	      0.45117188	     -0.60886399	      0.80398697	      6.12993757	    -13.61588467	      2.10809061	      0.03679312	      9.12550943	      7.63894321	     -7.54286717	      4.26138061	    -20.07583042	    -30.46391670	     18.25183165	      0.31855456	     29.70734096	     26.36047504	     -7.54286717	    -11.57820972	     12.11337858	      0.86557714	      2.82759788	     -6.54277049	    -19.44351827	     29.76840923	    101.36478299	      0.00000000	      1.25883398	     -5.11161552	     -8.24448254	     30.74865521	    105.35004734	      0.00000000
      0.00833333	    -89.69353198	      8.97487875	   -180.58585612	      0.92616604	      0.45039302	     -0.60808877	      0.77569217	      5.33518490	    -13.39289034	      2.00242008	      0.03494882	      9.26220527	      8.04563748	     -7.50960121	      4.15178195	    -19.13482379	    -29.77273918	     17.71936217	      0.30926121	     29.16098306	     25.29931084	     -7.50960121	    -11.90683508	     11.54218232	      0.54439463	      2.94756010	     -6.46622287	    -19.62213949	     29.83418116	    101.91825615	      0.00000000	      1.08635166	     -5.10397718	     -9.02919232	     31.19295230	    105.62222530	      0.00000000
      0.01666667	    -89.68988429	      8.95096889	   -180.36624700	      0.92619454	      0.44986163	     -0.60760603	      0.79306309	      5.25412640	    -13.48023087	      1.96680130	      0.03432716	      9.26025462	      8.09538044	     -7.50546875	      4.33819250	    -19.06777772	    -29.41794911	     17.80297963	      0.31072061	     29.05466554	     24.90752934	     -7.50546875	    -11.96352509	     11.54869454	      0.41544122	      2.82642332	     -6.47761555	    -19.87460039	     29.93929161	    102.15897513	      0.00000000	      1.06794161	     -5.12073781	     -9.06626429	     31.21096040	    106.08681529	      0.00000000
      0.02500000	    -89.69990292	      8.53878343	   -180.66795196	      0.92668094	      0.44941637	     -0.60762723	      0.78580232	      4.78551118	    -12.76510458	      1.91752575	      0.03346714	      9.08380458	      7.59504872	     -7.50412406	      3.96349953	    -18.24647188	    -28.98676612	     17.08128851	      0.29812473	     28.69725986	     23.87377338	     -7.50412406	    -12.12093757	     11.06141011	      0.66757801	      2.77093275	     -6.55931287	    -19.50243815	     29.88972950	    101.39048153	      0.00000000	      1.01025477	     -5.19133513	     -8.76116126	     31.21960701	    105.48386491	      0.00000000
      0.03333333	    -89.69253942	      8.83712120	   -180.40006313	      0.92694283	      0.44896191	     -0.60778816	      0.94573599	      5.15510496	    -13.64571584	      2.10773582	      0.03678693	      9.08213665	      7.99716602	     -7.50199028	      4.36933342	    -18.84934574	    -29.19638475	     17.14723696	      0.29927574	     28.21492168	     24.61659381	     -7.50199028	    -12.16006669	     11.39394108	      0.43468033	      2.73898751	     -6.49529261	    -19.97959378	     29.86883006	    102.19347400	      0.00000000	      0.86945805	     -5.20403820	     -9.09835522	     31.33871669	    106.11695706	      0.00000000
      0.04166667	    -89.66659277	     10.07551032	   -180.42807071	      0.92699616	      0.44835486	     -0.60897910	      1.02238801	      6.77383546	    -12.76125058	      2.94746690	      0.05144300	     10.78567262	      4.66234900	     -7.50054294	      5.02118718	    -20.94264363	    -30.50069822	     18.65196992	      0.32553829	     28.63347251	     25.98940126	     -7.50054294	    -12.38241186	     12.72154481	      0.72321474	      2.66460952	     -6.74923583	    -19.92306354	     29.99356389	    101.64224551	      0.00000000	      0.68767677	     -5.06310544	     -9.25283716	     31.61314917	    106.22729634	      0.00000000
      0.05000000	    -89.66338754	     10.01639065	   -180.43671428	      0.92715054	      0.44804159	     -0.60892096	      1.20378630	      6.68162621	    -13.09004317	      3.20881412	      0.05600437	     10.85449653	      4.56351840	     -7.50018354	      5.01584536	    -20.83364698	    -30.59475442	     18.60530304	      0.32472380	     28.52652870	     25.98207858	     -7.50018354	    -12.45439318	     12.64906943	      0.72512472	      2.57886788	     -6.73514399	    -20.10300742	     29.95255315	    101.65635843	      0.00000000	      0.56432901	     -5.11767005	     -9.15066088	     31.62574657	    106.00883186	      0.00000000
      0.05833333	    -89.66635812	      9.75125223	   -180.29922966	      0.92731848	      0.44761746	     -0.60843955	      1.26636803	      6.34844698	    -13.23927095	      3.25413935	      0.05679545	     10.90382940	      4.52628123	     -7.50010013	      4.99375725	    -20.29968568	    -29.93604992	     18.24471218	      0.31843030	     28.28444540	     25.26293222	     -7.50010013	    -12.51554708	     12.38182377	      0.53271068	      2.50608639	     -6.70577227	    -20.27632324	     29.95719375	    102.06453802	      0.00000000	      0.45335527	     -5.18235088	     -9.25351325	     31.68803026	    106.32666825	      0.00000000
      0.06666667	    -89.66155764	      9.58087024	   -180.32347501	      0.92744671	      0.44732460	     -0.60831262	      1.39765486	      6.08644789	    -13.63836168	      3.45783108	      0.06035054	     11.11266923	      5.01915719	     -7.50006305	      4.95683527	    -20.04215720	    -29.96948732	     18.11083870	      0.31609377	     28.17627876	     25.22483148	     -7.50006305	    -12.58548557	     12.19128003	      0.52668069	      2.41101169	     -6.74658613	    -20.10014404	     29.94131375	    101.21052480	      0.00000000	      0.32339074	     -5.27059116	     -8.93771884	     31.68488124	    105.63388018	      0.00000000
      0.07500000	    -89.66257992	      9.34550664	   -180.60357743	      0.92774069	      0.44693747	     -0.60863604	      1.44152327	      5.82601620	    -13.24337584	      3.49171317	      0.06094189	     11.04283009	      4.81631815	     -7.50003185	      4.74832041	    -19.67919597	    -30.15316454	     17.80569923	      0.31076808	     27.97135138	     24.94487693	     -7.50003185	    -12.73695456	     11.87953969	      0.81016572	      2.27680623	     -6.67530003	    -20.78553414	     29.97800110	    102.69136601	      0.00000000	      0.21286417	     -5.27687239	     -9.22241069	     31.71493027	    107.00638218	      0.00000000
      0.08333333	    -89.66104322	      9.31589923	   -180.56103209	      0.92793673	      0.44650949	     -0.60849726	      1.40111125	      5.81616281	    -13.13670054	      3.34609048	      0.05840030	     10.90752548	      4.68674417	     -7.50001683	      4.77025084	    -19.58920291	    -29.90449122	     17.70411461	      0.30899509	     27.87731756	     24.68740272	     -7.50001683	    -12.82784348	     11.86004225	      0.75781873	      2.15291245	     -6.73876213	    -20.53769813	     30.03904944	    101.63510194	      0.00000000	      0.07754893	     -5.32195581	     -9.11878748	     31.75936830	    106.16597681	      0.00000000
      0.09166667	    -89.65376012	      9.24750764	   -180.48757206	      0.92812177	      0.44605550	     -0.60819592	      1.45717797	      5.70801473	    -13.48177477	      3.40091187	      0.05935711	     11.02477716	      5.06045320	     -7.50000972	      4.83108195	    -19.48974863	    -29.79670540	     17.69663494	      0.30886455	     27.91719806	     24.67882372	     -7.50000972	    -12.91635133	     11.80236911	      0.64119506	      2.06604911	     -6.77616161	    -20.47810596	     30.04572149	    101.83319928	      0.00000000	     -0.09055655	     -5.31974148	     -9.41982687	     31.85423083	    106.30072870	      0.00000000
      0.10000000	    -89.65061331	      9.04733735	   -180.49334183	      0.92835399	      0.44543364	     -0.60780870	      1.51785228	      5.44646065	    -13.56562766	      3.44371981	      0.06010425	     11.06644489	      5.19923148	     -7.50000335	      4.77505714	    -19.13591862	    -29.44712202	     17.49730616	      0.30538560	     27.86043208	     24.36146397	     -7.50000335	    -13.04243035	     11.60013910	      0.57780065	      2.02953519	     -6.81403276	    -20.37004783	     29.98887567	    102.05347951	      0.00000000	     -0.22414239	     -5.34913489	     -9.46722564	     31.94478304	    106.27999805	      0.00000000
      0.10833333	    -89.65113429	      8.77246518	   -180.58903181	      0.92862771	      0.44485527	     -0.60762712	      1.59874820	      5.10623593	    -13.54685931	      3.53798800	      0.06174954	     11.16395448	      5.24439295	     -7.50000145	      4.58000277	    -18.60202417	    -29.01763480	     17.03136661	      0.29725342	     27.60559805	     23.73169812	     -7.50000145	    -13.18845968	     11.29072659	      0.60537062	      1.96024098	     -6.77965857	    -20.49332896	     29.99905717	    102.07422824	      0.00000000	     -0.36239984	     -5.39387461	     -9.45394339	     31.99388675	    106.39082862	      0.00000000
      0.11666667	    -89.65626624	      8.50812373	   -180.51305508	      0.92889804	      0.44455977	     -0.60717875	      1.62966938	      4.77449495	    -13.66229587	      3.58464736	      0.06256390	     11.31271554	      5.30313622	     -7.50000104	      4.42947574	    -18.03531310	    -28.42826206	     16.49286778	      0.28785485	     27.21390036	     23.01543308	     -7.50000104	    -13.27328529	     11.03596226	      0.46846261	      1.83245782	     -6.76715054	    -20.50595916	     29.99263054	    101.50094856	      0.00000000	     -0.57818010	     -5.48858237	     -9.38297478	     32.11951533	    105.82416102	      0.00000000
